<?xml version="1.0" standalone="no"?>
<!DOCTYPE svg PUBLIC "-//W3C//DTD SVG 20010904//EN"
 "http://www.w3.org/TR/2001/REC-SVG-20010904/DTD/svg10.dtd">
<svg version="1.0" xmlns="http://www.w3.org/2000/svg"
 width="700.000000pt" height="700.000000pt" viewBox="0 0 700.000000 700.000000"
 preserveAspectRatio="xMidYMid meet">
<metadata>
Created by potrace 1.11, written by Peter Selinger 2001-2013
</metadata>
<g transform="translate(0.000000,700.000000) scale(0.100000,-0.100000)"
fill="#000000" stroke="none">
<path d="M1884 5465 c-2 -5 -3 -894 -2 -1975 l3 -1965 930 0 c922 1 1095 5
1237 26 40 6 84 12 96 14 99 14 281 73 372 122 202 108 381 295 481 503 28 59
77 192 84 227 3 16 7 42 11 58 26 137 26 370 0 492 -38 178 -110 322 -220 440
-88 95 -200 169 -344 229 -23 9 -21 11 33 39 84 44 206 145 259 214 81 105
130 230 161 406 6 36 7 270 1 305 -3 14 -7 43 -11 65 -10 68 -45 177 -80 246
-33 66 -82 149 -94 159 -3 3 -21 23 -40 44 -138 161 -389 291 -636 330 -55 8
-109 16 -165 22 -95 12 -2072 11 -2076 -1z m1886 -689 c231 -44 256 -53 325
-117 25 -23 55 -63 66 -87 59 -129 57 -321 -4 -438 -47 -91 -180 -170 -332
-199 -66 -12 -230 -17 -683 -18 l-472 -2 0 438 0 439 533 -5 c292 -2 548 -8
567 -11z m15 -1520 c287 -30 444 -147 489 -368 12 -60 13 -165 2 -240 -29
-205 -151 -346 -346 -401 -103 -30 -206 -35 -732 -36 l-528 -2 0 524 c0 288 2
526 4 528 7 7 1038 2 1111 -5z"/>
</g>
</svg>
